<?xml version="1.0" encoding="utf-8"?>
<!-- Generator: Adobe Illustrator 19.0.0, SVG Export Plug-In . SVG Version: 6.00 Build 0)  -->
<svg version="1.1" id="Capa_1" xmlns="http://www.w3.org/2000/svg" xmlns:xlink="http://www.w3.org/1999/xlink" x="0px" y="0px"
	 viewBox="0 0 85 105" style="enable-background:new 0 0 85 105;" xml:space="preserve">
<style type="text/css">
	.st0{fill:#2E0023;}
	.st1{opacity:0.8;fill:#2E0023;}
	.st2{opacity:0.5;fill:#2E0023;}
</style>
<path id="XMLID_94_" class="st0" d="M33.9,59.3c-0.9-0.3-1.5-1.3-1.2-2.2c0.3-1,1.3-1.5,2.2-1.2c0.9,0.3,1.5,1.3,1.2,2.2
	C35.8,59.1,34.8,59.6,33.9,59.3z"/>
<path id="XMLID_93_" class="st0" d="M29.4,58.1c-0.9-0.3-1.5-1.3-1.2-2.2c0.3-1,1.3-1.5,2.2-1.2c0.9,0.3,1.5,1.3,1.2,2.2
	C31.3,57.8,30.3,58.3,29.4,58.1z"/>
<path id="XMLID_92_" class="st0" d="M38.7,59.4c-0.9-0.3-1.5-1.3-1.2-2.2c0.3-1,1.3-1.5,2.2-1.2c0.9,0.3,1.5,1.3,1.2,2.2
	C40.6,59.1,39.6,59.7,38.7,59.4z"/>
<path id="XMLID_91_" class="st0" d="M43.1,58c-0.8-0.2-1.3-1-1-1.8c0.2-0.8,1-1.2,1.8-1c0.8,0.2,1.3,1,1.1,1.8
	C44.8,57.8,43.9,58.2,43.1,58z"/>
<path id="XMLID_90_" class="st0" d="M26,55.5c-0.8-0.2-1.3-1-1-1.8c0.2-0.8,1-1.2,1.8-1c0.8,0.2,1.3,1,1,1.8
	C27.6,55.3,26.8,55.7,26,55.5z"/>
<path id="XMLID_89_" class="st0" d="M23.5,52.9c-0.6-0.2-1-0.8-0.9-1.4c0.2-0.6,0.8-1,1.5-0.8c0.7,0.2,1,0.8,0.9,1.4
	C24.9,52.7,24.2,53,23.5,52.9z"/>
<path id="XMLID_88_" class="st0" d="M46.2,56c-0.7-0.2-1-0.8-0.9-1.4c0.2-0.6,0.8-1,1.5-0.8c0.7,0.2,1,0.8,0.9,1.4
	C47.5,55.9,46.8,56.2,46.2,56z"/>
<path id="XMLID_87_" class="st0" d="M22,50.2c-0.5-0.1-0.8-0.7-0.6-1.2c0.1-0.5,0.7-0.8,1.2-0.7c0.5,0.1,0.8,0.7,0.6,1.2
	C23,50.1,22.5,50.4,22,50.2z"/>
<ellipse id="XMLID_86_" transform="matrix(-0.2739 0.9618 -0.9618 -0.2739 113.2476 19.5208)" class="st0" cx="49.3" cy="52.5" rx="0.9" ry="0.9"/>
<path id="XMLID_85_" class="st0" d="M21.2,47.8c-0.4-0.1-0.7-0.6-0.6-1c0.1-0.4,0.6-0.7,1-0.5c0.4,0.1,0.7,0.6,0.6,1
	C22.1,47.6,21.6,47.9,21.2,47.8z"/>
<path id="XMLID_84_" class="st0" d="M20.7,45.5c-0.4-0.1-0.6-0.5-0.5-0.8c0.1-0.3,0.5-0.5,0.8-0.4c0.4,0.1,0.6,0.5,0.5,0.8
	C21.4,45.4,21,45.6,20.7,45.5z"/>
<path id="XMLID_83_" class="st0" d="M50.2,50.5c-0.4-0.1-0.6-0.5-0.5-0.8c0.1-0.3,0.5-0.5,0.8-0.4c0.4,0.1,0.6,0.5,0.5,0.8
	C50.9,50.4,50.5,50.6,50.2,50.5z"/>
<path id="XMLID_82_" class="st1" d="M9.8,50.6c0,1.4-1.1,2.5-2.4,2.5C6.1,53.1,5,52,5,50.6c0-1.4,1.1-2.5,2.4-2.5
	C8.7,48.2,9.8,49.3,9.8,50.6z"/>
<path id="XMLID_81_" class="st1" d="M8.8,43.4c0,1.4-1.1,2.5-2.4,2.5c-1.3,0-2.4-1.1-2.4-2.5c0-1.4,1.1-2.5,2.4-2.5
	C7.7,40.9,8.8,42,8.8,43.4z"/>
<path id="XMLID_80_" class="st1" d="M12.9,56.8c0,1.4-1.1,2.5-2.4,2.5c-1.3,0-2.4-1.1-2.4-2.5c0-1.4,1.1-2.5,2.4-2.5
	C11.9,54.4,12.9,55.5,12.9,56.8z"/>
<path id="XMLID_79_" class="st1" d="M16.4,61.7c0,1.2-0.9,2.1-2.1,2.1c-1.1,0-2.1-0.9-2.1-2.1c0-1.2,0.9-2.1,2.1-2.1
	C15.4,59.6,16.4,60.5,16.4,61.7z"/>
<path id="XMLID_78_" class="st1" d="M10.4,36.8c0,1.2-0.9,2.1-2.1,2.1c-1.1,0-2.1-0.9-2.1-2.1c0-1.2,0.9-2.1,2.1-2.1
	C9.4,34.7,10.4,35.7,10.4,36.8z"/>
<path id="XMLID_77_" class="st1" d="M20.1,65.6c0,1.1-0.8,1.9-1.9,1.9c-1,0-1.9-0.9-1.9-1.9c0-1.1,0.8-1.9,1.9-1.9
	C19.3,63.7,20.1,64.6,20.1,65.6z"/>
<path id="XMLID_76_" class="st1" d="M12.1,31.4c0,1.1-0.8,1.9-1.9,1.9c-1,0-1.9-0.9-1.9-1.9c0-1.1,0.8-1.9,1.9-1.9
	C11.2,29.5,12.1,30.4,12.1,31.4z"/>
<path id="XMLID_75_" class="st1" d="M25.4,67.8c0,1-0.8,1.7-1.7,1.7c-0.9,0-1.7-0.8-1.7-1.7c0-1,0.8-1.7,1.7-1.7
	C24.6,66,25.4,66.8,25.4,67.8z"/>
<path id="XMLID_74_" class="st1" d="M14.8,27.7c0,1-0.8,1.7-1.7,1.7c-0.9,0-1.7-0.8-1.7-1.7c0-1,0.8-1.7,1.7-1.7
	C14.1,26,14.8,26.8,14.8,27.7z"/>
<path id="XMLID_73_" class="st1" d="M30.1,69c0,0.7-0.5,1.3-1.2,1.3c-0.7,0-1.2-0.6-1.2-1.3c0-0.7,0.5-1.3,1.2-1.3
	C29.6,67.7,30.1,68.3,30.1,69z"/>
<path id="XMLID_72_" class="st1" d="M16.7,23.9c0,0.7-0.5,1.3-1.2,1.3c-0.7,0-1.2-0.6-1.2-1.3c0-0.7,0.5-1.3,1.2-1.3
	C16.1,22.7,16.7,23.3,16.7,23.9z"/>
<path id="XMLID_71_" class="st1" d="M34.1,69.1c0,0.6-0.5,1.1-1,1.1c-0.6,0-1-0.5-1-1.1c0-0.6,0.5-1.1,1-1.1
	C33.7,68.1,34.1,68.5,34.1,69.1z"/>
<path id="XMLID_70_" class="st1" d="M19.1,21.9c0,0.5-0.4,0.9-0.9,0.9c-0.5,0-0.9-0.4-0.9-0.9c0-0.5,0.4-0.9,0.9-0.9
	C18.7,21,19.1,21.4,19.1,21.9z"/>
<path id="XMLID_69_" class="st1" d="M21.6,20.3c0,0.5-0.4,0.9-0.9,0.9c-0.5,0-0.9-0.4-0.9-0.9c0-0.5,0.4-0.9,0.9-0.9
	C21.2,19.3,21.6,19.7,21.6,20.3z"/>
<path id="XMLID_68_" class="st2" d="M23.2,56.7c0.6,1,0.3,2.2-0.6,2.8c-0.9,0.6-2.2,0.3-2.8-0.7c-0.6-1-0.3-2.2,0.6-2.8
	C21.3,55.5,22.6,55.8,23.2,56.7z"/>
<path id="XMLID_67_" class="st2" d="M19.3,52.1c0.6,1,0.3,2.2-0.7,2.8c-0.9,0.6-2.2,0.3-2.8-0.7c-0.6-1-0.3-2.2,0.6-2.8
	C17.5,50.8,18.7,51.1,19.3,52.1z"/>
<path id="XMLID_66_" class="st2" d="M28.1,59.8c0.6,1,0.3,2.2-0.6,2.8c-0.9,0.6-2.2,0.3-2.8-0.7c-0.6-1-0.3-2.2,0.6-2.8
	C26.2,58.5,27.5,58.8,28.1,59.8z"/>
<path id="XMLID_65_" class="st2" d="M32.5,61.7c0.5,0.8,0.3,1.9-0.6,2.4c-0.8,0.5-1.9,0.2-2.4-0.6c-0.5-0.8-0.3-1.9,0.6-2.4
	C31,60.6,32.1,60.9,32.5,61.7z"/>
<path id="XMLID_64_" class="st2" d="M17.3,47.9c0.5,0.8,0.3,1.9-0.5,2.4c-0.8,0.5-1.9,0.2-2.4-0.6c-0.5-0.8-0.3-1.9,0.6-2.4
	C15.8,46.9,16.8,47.1,17.3,47.9z"/>
<path id="XMLID_63_" class="st2" d="M36.9,62.8c0.5,0.7,0.2,1.7-0.5,2.2c-0.7,0.5-1.7,0.2-2.2-0.5c-0.5-0.7-0.2-1.7,0.5-2.2
	C35.5,61.9,36.5,62.1,36.9,62.8z"/>
<path id="XMLID_62_" class="st2" d="M16.2,43.4c0.5,0.7,0.2,1.7-0.5,2.2C15,46,14,45.8,13.5,45.1c-0.5-0.7-0.2-1.7,0.5-2.2
	C14.8,42.5,15.7,42.7,16.2,43.4z"/>
<path id="XMLID_61_" class="st2" d="M42.3,62.4c0.4,0.7,0.2,1.5-0.5,1.9c-0.7,0.4-1.5,0.2-1.9-0.5c-0.4-0.7-0.2-1.5,0.5-2
	C41,61.5,41.9,61.7,42.3,62.4z"/>
<path id="XMLID_60_" class="st2" d="M16.3,39.2c0.4,0.7,0.2,1.5-0.5,2c-0.7,0.4-1.5,0.2-1.9-0.5c-0.4-0.7-0.2-1.5,0.5-1.9
	C15,38.3,15.8,38.5,16.3,39.2z"/>
<path id="XMLID_59_" class="st2" d="M45.4,61c0.3,0.5,0.2,1.1-0.3,1.4c-0.5,0.3-1.1,0.1-1.4-0.4c-0.3-0.5-0.2-1.1,0.3-1.4
	C44.5,60.3,45.1,60.5,45.4,61z"/>
<path id="XMLID_58_" class="st2" d="M17.3,36.1c0.3,0.5,0.2,1.1-0.3,1.4c-0.5,0.3-1.1,0.1-1.4-0.4c-0.3-0.5-0.2-1.1,0.3-1.4
	C16.4,35.4,17,35.6,17.3,36.1z"/>
<path id="XMLID_57_" class="st2" d="M18.4,34c0.2,0.4,0.1,0.8-0.2,1c-0.3,0.2-0.8,0.1-1-0.3c-0.2-0.4-0.1-0.8,0.2-1
	C17.8,33.5,18.2,33.7,18.4,34z"/>
<path id="XMLID_56_" class="st2" d="M20.2,32c0.2,0.4,0.1,0.8-0.2,1c-0.3,0.2-0.8,0.1-1-0.3c-0.2-0.4-0.1-0.8,0.2-1
	C19.5,31.5,20,31.6,20.2,32z"/>
<path id="XMLID_55_" class="st0" d="M82.8,49.3c-0.2,2.4-2.4,4.1-4.8,3.9c-2.4-0.2-4.2-2.4-3.9-4.8c0.2-2.4,2.4-4.1,4.8-3.9
	C81.3,44.7,83.1,46.9,82.8,49.3z"/>
<path id="XMLID_54_" class="st0" d="M81.7,60.6c-0.2,2.4-2.4,4.1-4.8,3.9c-2.4-0.2-4.2-2.4-3.9-4.8c0.2-2.4,2.4-4.1,4.8-3.9
	C80.1,56.1,81.9,58.2,81.7,60.6z"/>
<path id="XMLID_53_" class="st0" d="M81,36.6c-0.2,2.4-2.4,4.1-4.8,3.9c-2.4-0.2-4.2-2.4-3.9-4.8c0.2-2.4,2.4-4.1,4.8-3.9
	C79.5,32.1,81.2,34.2,81,36.6z"/>
<path id="XMLID_52_" class="st0" d="M75,24.3c-0.2,2.3-2.2,3.9-4.3,3.7c-2.1-0.2-3.7-2.2-3.5-4.5c0.2-2.3,2.2-3.9,4.3-3.7
	C73.7,20,75.2,22,75,24.3z"/>
<path id="XMLID_51_" class="st0" d="M78.7,69.8c-0.2,2-1.9,3.5-3.9,3.3c-1.9-0.2-3.3-2-3.1-4c0.2-2,1.9-3.5,3.9-3.3
	C77.5,66,78.9,67.8,78.7,69.8z"/>
<path id="XMLID_50_" class="st0" d="M76,77c-0.2,1.7-1.6,2.9-3.1,2.7c-1.6-0.2-2.7-1.6-2.5-3.3c0.2-1.7,1.6-2.9,3.1-2.7
	C75.1,73.8,76.2,75.3,76,77z"/>
<path id="XMLID_49_" class="st0" d="M58.7,9c-0.2,1.7-1.6,2.9-3.1,2.7c-1.6-0.2-2.7-1.6-2.5-3.3c0.2-1.7,1.6-2.9,3.1-2.7
	C57.8,5.9,58.9,7.4,58.7,9z"/>
<path id="XMLID_48_" class="st0" d="M72.6,82.6c-0.1,1.3-1.3,2.2-2.5,2c-1.3-0.1-2.2-1.3-2.1-2.5c0.1-1.3,1.3-2.2,2.5-2
	C71.8,80.3,72.7,81.4,72.6,82.6z"/>
<path id="XMLID_47_" class="st0" d="M44.6,4.8c-0.1,1.3-1.3,2.2-2.5,2c-1.3-0.1-2.2-1.3-2.1-2.5c0.1-1.2,1.3-2.2,2.5-2
	C43.8,2.4,44.8,3.5,44.6,4.8z"/>
<path id="XMLID_46_" class="st0" d="M69.9,87.9c-0.1,1.1-1.1,1.9-2.1,1.8c-1.1-0.1-1.8-1.1-1.7-2.2c0.1-1.1,1.1-1.9,2.1-1.8
	C69.2,85.8,70,86.8,69.9,87.9z"/>
<path id="XMLID_45_" class="st0" d="M66.6,92c-0.1,0.9-0.9,1.6-1.8,1.5c-0.9-0.1-1.5-0.9-1.4-1.8c0.1-0.9,0.9-1.6,1.8-1.5
	C66.1,90.3,66.7,91.1,66.6,92z"/>
<path id="XMLID_44_" class="st0" d="M19.9,7.9c-0.1,0.9-0.9,1.6-1.8,1.5c-0.9-0.1-1.5-0.9-1.4-1.8c0.1-0.9,0.9-1.6,1.8-1.5
	C19.4,6.2,20,7,19.9,7.9z"/>
<ellipse id="XMLID_43_" class="st2" cx="67.7" cy="53" rx="2.4" ry="2.5"/>
<path id="XMLID_42_" class="st2" d="M68.7,59.3c0,1-0.8,1.9-1.9,1.9c-1,0-1.9-0.9-1.9-1.9c0-1.1,0.8-1.9,1.9-1.9
	C67.8,57.4,68.7,58.2,68.7,59.3z"/>
<path id="XMLID_41_" class="st0" d="M31.9,4.9c-0.3,1.2-1.6,1.9-2.8,1.6c-1.2-0.3-1.9-1.6-1.5-2.8c0.3-1.2,1.6-1.9,2.8-1.6
	C31.6,2.4,32.3,3.7,31.9,4.9z"/>
<path id="XMLID_40_" class="st0" d="M63.7,95.9c-0.1,0.9-0.9,1.6-1.8,1.5c-0.9-0.1-1.5-0.9-1.4-1.8c0.1-0.9,0.9-1.6,1.8-1.5
	C63.1,94.1,63.8,94.9,63.7,95.9z"/>
<path id="XMLID_39_" class="st0" d="M59.8,99.5c-0.1,0.7-0.7,1.2-1.3,1.1c-0.7-0.1-1.1-0.7-1.1-1.4c0.1-0.7,0.7-1.2,1.3-1.1
	C59.4,98.2,59.9,98.8,59.8,99.5z"/>
<path id="XMLID_38_" class="st0" d="M56.2,102.2c0,0.5-0.5,0.9-1,0.8c-0.5-0.1-0.8-0.5-0.8-1c0.1-0.5,0.5-0.9,1-0.8
	C55.9,101.2,56.3,101.7,56.2,102.2z"/>
<path id="XMLID_37_" class="st0" d="M66.6,15.1c-0.2,2.3-2.2,3.9-4.3,3.7c-2.1-0.2-3.7-2.2-3.5-4.5c0.2-2.3,2.2-3.9,4.3-3.7
	C65.2,10.8,66.8,12.8,66.6,15.1z"/>
<path id="XMLID_36_" class="st0" d="M51.7,6.2c-0.2,1.7-1.6,2.9-3.1,2.7c-1.6-0.2-2.7-1.6-2.5-3.3C46.3,4,47.7,2.8,49.2,3
	C50.8,3.1,51.9,4.6,51.7,6.2z"/>
<path id="XMLID_35_" class="st0" d="M38.4,4.2c-0.1,1.3-1.3,2.2-2.5,2c-1.3-0.1-2.2-1.2-2.1-2.5c0.1-1.3,1.3-2.2,2.5-2
	C37.6,1.8,38.6,2.9,38.4,4.2z"/>
<path id="XMLID_34_" class="st0" d="M25.5,6.3c-0.3,1.2-1.6,1.9-2.8,1.6c-1.2-0.3-1.9-1.6-1.5-2.8c0.3-1.2,1.6-1.9,2.8-1.6
	C25.2,3.9,25.9,5.1,25.5,6.3z"/>
<path id="XMLID_33_" class="st2" d="M69.6,38.9c0,1.8-1.3,3.2-3,3.2c-1.7,0-3-1.4-3-3.2c0-1.8,1.3-3.2,3-3.2
	C68.3,35.7,69.6,37.1,69.6,38.9z"/>
<path id="XMLID_32_" class="st2" d="M70.3,46.3c0,1.7-1.3,3-2.8,3c-1.6,0-2.8-1.4-2.8-3c0-1.7,1.3-3,2.8-3
	C69,43.3,70.3,44.6,70.3,46.3z"/>
<path id="XMLID_31_" class="st2" d="M54.7,17.6c0,1.4-1.1,2.5-2.4,2.5c-1.3,0-2.4-1.1-2.4-2.5c0-1.4,1.1-2.5,2.4-2.5
	C53.6,15.1,54.7,16.2,54.7,17.6z"/>
<path id="XMLID_30_" class="st2" d="M67.8,64.5c0,1.1-0.8,1.9-1.9,1.9c-1,0-1.9-0.9-1.9-1.9c0-1.1,0.8-1.9,1.9-1.9
	C67,62.5,67.8,63.4,67.8,64.5z"/>
<path id="XMLID_29_" class="st2" d="M66.3,69c0,1-0.8,1.7-1.7,1.7c-0.9,0-1.7-0.8-1.7-1.7c0-1,0.8-1.7,1.7-1.7
	C65.5,67.3,66.3,68.1,66.3,69z"/>
<path id="XMLID_28_" class="st2" d="M64.1,73.6c0,0.7-0.6,1.3-1.3,1.3c-0.7,0-1.3-0.6-1.3-1.3c0-0.7,0.6-1.3,1.3-1.3
	C63.6,72.3,64.1,72.9,64.1,73.6z"/>
<path id="XMLID_27_" class="st2" d="M60.2,22.9c0,1.8-1.3,3.2-3,3.2c-1.7,0-3-1.4-3-3.2c0-1.8,1.3-3.2,3-3.2
	C58.8,19.7,60.2,21.1,60.2,22.9z"/>
<path id="XMLID_26_" class="st2" d="M66.6,30c0,2.3-1.8,4.1-3.9,4.1c-2.2,0-3.9-1.8-3.9-4.1c0-2.3,1.7-4.1,3.9-4.1
	C64.8,25.9,66.6,27.8,66.6,30z"/>
<path id="XMLID_25_" class="st2" d="M49.1,14.3c0,1.1-0.8,1.9-1.9,1.9c-1,0-1.9-0.9-1.9-1.9c0-1.1,0.8-1.9,1.9-1.9
	C48.2,12.4,49.1,13.2,49.1,14.3z"/>
<path id="XMLID_24_" class="st2" d="M44.3,12.5c0,1-0.8,1.7-1.7,1.7c-0.9,0-1.7-0.8-1.7-1.7c0-1,0.8-1.7,1.7-1.7
	C43.6,10.7,44.3,11.5,44.3,12.5z"/>
<path id="XMLID_23_" class="st2" d="M39.8,11.6c0,0.7-0.6,1.3-1.3,1.3c-0.7,0-1.3-0.6-1.3-1.3c0-0.7,0.6-1.3,1.3-1.3
	C39.2,10.3,39.8,10.9,39.8,11.6z"/>
<path id="XMLID_22_" class="st2" d="M35.1,11.4c0,0.6-0.5,1.1-1.1,1.1c-0.6,0-1.1-0.5-1.1-1.1c0-0.6,0.5-1.1,1.1-1.1
	C34.7,10.3,35.1,10.8,35.1,11.4z"/>
<path id="XMLID_21_" class="st0" d="M14.7,10.5c-0.1,0.9-0.9,1.6-1.8,1.5c-0.9-0.1-1.5-0.9-1.4-1.8c0.1-0.9,0.9-1.6,1.8-1.5
	C14.2,8.8,14.8,9.6,14.7,10.5z"/>
<path id="XMLID_20_" class="st0" d="M10.3,13.5c-0.1,0.7-0.7,1.2-1.3,1.1c-0.7-0.1-1.1-0.7-1.1-1.4c0.1-0.7,0.7-1.2,1.3-1.1
	C9.9,12.2,10.3,12.9,10.3,13.5z"/>
<path id="XMLID_19_" class="st0" d="M6.7,17.5c-0.1,0.5-0.5,0.9-1,0.8c-0.5-0.1-0.8-0.5-0.8-1c0.1-0.5,0.5-0.9,1-0.8
	C6.4,16.5,6.7,17,6.7,17.5z"/>
<path id="XMLID_18_" class="st2" d="M61.8,76.7c0,0.4-0.3,0.8-0.8,0.8c-0.4,0-0.8-0.4-0.8-0.8c0-0.4,0.4-0.8,0.8-0.8
	C61.4,75.9,61.8,76.3,61.8,76.7z"/>
<path id="XMLID_17_" class="st2" d="M31.2,12.4c0,0.4-0.3,0.8-0.8,0.8c-0.4,0-0.8-0.4-0.8-0.8c0-0.4,0.3-0.8,0.8-0.8
	C30.8,11.6,31.2,12,31.2,12.4z"/>
<path id="XMLID_16_" class="st1" d="M36.5,69.6c-0.5-0.2-0.8-0.7-0.7-1.2c0.1-0.5,0.7-0.8,1.2-0.6c0.5,0.2,0.8,0.7,0.7,1.2
	C37.6,69.5,37.1,69.8,36.5,69.6z"/>
<path id="XMLID_15_" class="st1" d="M39.7,68.6c-0.4-0.1-0.7-0.5-0.6-0.9c0.1-0.4,0.5-0.6,1-0.5c0.4,0.1,0.7,0.5,0.6,0.9
	C40.5,68.5,40.1,68.7,39.7,68.6z"/>
<path id="XMLID_14_" class="st1" d="M60.3,49.1c0.2,1.1-0.5,2.2-1.6,2.4c-1.1,0.2-2.2-0.5-2.4-1.6c-0.2-1.1,0.5-2.2,1.6-2.4
	C58.9,47.3,60,48,60.3,49.1z"/>
<path id="XMLID_13_" class="st1" d="M60.1,43c0,1.5-1.1,2.6-2.5,2.6c-1.4,0-2.5-1.2-2.5-2.7c0-1.5,1.1-2.6,2.5-2.6
	C59.1,40.3,60.2,41.5,60.1,43z"/>
<path id="XMLID_12_" class="st1" d="M49.3,25.4c0,1.2-1,2.1-2.1,2.1c-1.2,0-2.1-1-2.1-2.2c0-1.2,1-2.1,2.1-2.1
	C48.3,23.2,49.3,24.2,49.3,25.4z"/>
<path id="XMLID_11_" class="st1" d="M60,54.7c0.2,1-0.4,1.9-1.4,2.1c-1,0.2-1.9-0.4-2.1-1.4c-0.2-1,0.4-1.9,1.4-2.1
	C58.8,53.1,59.7,53.8,60,54.7z"/>
<ellipse id="XMLID_10_" transform="matrix(0.9777 -0.2099 0.2099 0.9777 -11.342 13.3588)" class="st1" cx="57.3" cy="60.1" rx="1.3" ry="1.3"/>
<path id="XMLID_9_" class="st1" d="M56.7,63.5c0.1,0.5-0.2,1-0.7,1.1c-0.5,0.1-1-0.2-1.1-0.7c-0.1-0.5,0.2-1,0.7-1.1
	C56.1,62.7,56.6,63,56.7,63.5z"/>
<path id="XMLID_8_" class="st1" d="M53.9,30.3c0,1.4-1.2,2.5-2.6,2.5c-1.4,0-2.6-1.2-2.5-2.5c0-1.4,1.2-2.5,2.6-2.5
	C52.8,27.8,53.9,28.9,53.9,30.3z"/>
<path id="XMLID_7_" class="st1" d="M58.1,35.9c0,1.6-1.3,2.9-2.8,2.9c-1.5,0-2.8-1.3-2.7-3c0-1.6,1.3-2.9,2.8-2.9
	C56.9,33,58.1,34.3,58.1,35.9z"/>
<path id="XMLID_6_" class="st1" d="M43.9,22.9c0,0.9-0.7,1.5-1.5,1.5c-0.8,0-1.5-0.7-1.5-1.6c0-0.9,0.7-1.5,1.5-1.5
	C43.2,21.4,43.9,22.1,43.9,22.9z"/>
<path id="XMLID_5_" class="st1" d="M39.1,21.5c0,0.7-0.6,1.3-1.3,1.3c-0.7,0-1.3-0.6-1.3-1.3c0-0.7,0.6-1.3,1.3-1.3
	C38.5,20.2,39.1,20.8,39.1,21.5z"/>
<path id="XMLID_4_" class="st1" d="M34.5,21.3c0,0.5-0.4,1-0.9,0.9c-0.5,0-0.9-0.4-0.9-1c0-0.5,0.4-1,0.9-0.9
	C34.1,20.3,34.5,20.7,34.5,21.3z"/>
</svg>
